<svg width="204" height="164" version="1.1" xmlns="http://www.w3.org/2000/svg"><path fill="rgb(0,0,0)" stroke="rgb(0,0,0)" stroke-width="1" opacity="1" d="M 4.5 1 L 72.5 1 L 73.5 2 L 74.5 1 L 156.5 1 L 158.5 1 L 195.5 1 L 199 2 L 199 161.5 L 197.5 163 L 2.5 163 L 1 161.5 L 1.5 101 L 2 162 L 198 162 L 198 3.5 L 197 3.5 L 197 46.5 L 196 47.5 L 197 48.5 L 197 81.5 L 197 83.5 L 197 160.5 L 196.5 161 L 185.5 161 L 183.5 161 L 3 161 L 3 3.5 L 2 3.5 L 1.5 18 L 1 2 L 4.5 1 Z M 19 14 L 19 15 L 21 15 L 19 14 Z M 19 16 L 16 19 L 16 22 L 27 33 L 16 45 Q 15 49 19 50 L 23 49 L 35 37 L 36 31 L 22 16 L 19 16 Z M 15 18 L 14 22 L 15 22 L 15 18 Z M 38 31 L 37 35 L 38 35 L 38 31 Z M 24 32 L 24 34 L 26 33 L 24 32 Z M 42 40 L 42 41 L 67 41 L 42 40 Z M 42 42 Q 38 43 39 48 L 42 50 L 67 50 L 70 46 L 69 44 L 68 42 L 42 42 Z M 15 44 L 14 48 L 15 48 L 15 44 Z M 38 44 L 37 48 L 38 48 L 38 44 Z M 19 51 L 19 52 L 21 52 L 19 51 Z M 42 51 L 42 52 L 67 52 L 42 51 Z M 89 68 L 89 69 L 95 69 L 89 68 Z M 97 69 L 97 70 L 99 70 L 97 69 Z M 58 70 L 58 75 L 51 77 L 47 82 L 48 90 Q 51 95 58 95 L 58 103 L 47 100 L 47 106 L 46 100 L 45 107 L 54 110 L 58 110 L 58 115 Q 66 118 63 110 L 70 108 L 74 103 L 74 97 L 72 93 L 65 89 L 63 89 L 63 82 L 71 84 Q 74 81 73 76 L 65 74 L 63 74 L 63 70 L 58 70 Z M 88 70 L 84 72 Q 79 74 80 82 L 76 85 L 76 89 L 80 90 L 80 112 L 90 112 L 90 92 L 91 91 L 96 91 L 97 97 L 99 96 L 99 98 Q 105 101 99 104 Q 98 108 101 109 L 96 114 L 96 120 Q 99 124 105 125 Q 116 127 122 122 L 126 117 Q 127 110 124 107 L 120 105 L 107 105 L 108 102 L 108 104 L 120 104 L 119 103 L 117 103 L 112 103 L 120 100 L 123 95 Q 124 90 122 89 L 125 87 L 126 87 L 126 82 L 115 82 L 114 81 Q 106 80 103 83 Q 97 85 98 93 L 97 89 Q 95 92 90 90 L 90 89 L 96 89 L 96 82 L 89 82 L 96 81 L 97 80 L 92 79 L 90 80 Q 89 77 97 78 L 99 71 Q 95 69 88 70 Z M 172 70 L 172 71 L 174 71 L 172 70 Z M 57 71 L 56 73 L 54 74 L 57 74 L 57 71 Z M 101 71 L 100 74 L 101 74 L 101 71 Z M 136 71 L 136 72 L 138 72 L 136 71 Z M 139 72 L 134 74 Q 129 77 127 84 L 127 89 L 130 96 L 136 99 Q 143 100 146 97 L 147 97 L 145 102 L 140 105 L 130 105 L 130 112 L 133 113 L 144 112 L 148 110 L 154 102 L 156 91 L 153 79 Q 149 72 139 72 Z M 170 72 L 163 75 L 159 81 Q 158 86 161 89 L 165 92 L 164 92 L 158 100 Q 157 106 160 109 L 170 113 L 175 113 L 181 111 L 186 105 Q 187 98 184 96 L 179 92 L 185 85 L 184 78 Q 180 71 170 72 Z M 67 73 L 67 74 L 69 74 L 67 73 Z M 151 74 L 152 76 Q 153 73 151 74 Z M 79 79 L 78 82 L 79 82 L 79 79 Z M 109 79 L 109 80 L 113 80 L 109 79 Z M 116 80 L 116 81 L 126 81 L 127 82 L 127 80 L 116 80 Z M 158 80 L 156 87 Q 160 88 159 86 L 157 86 L 158 84 L 158 80 Z M 187 80 L 186 84 L 187 84 L 187 80 Z M 46 81 L 45 87 L 46 87 L 46 81 Z M 65 83 L 64 88 L 65 88 L 65 83 Z M 67 84 L 67 85 L 69 85 L 67 84 Z M 75 84 L 74 89 L 75 89 L 75 84 Z M 124 88 L 125 95 L 126 89 L 124 88 Z M 77 90 L 77 91 L 78 92 L 78 111 L 79 111 L 79 91 L 77 90 Z M 182 90 L 180 92 L 182 92 L 182 90 Z M 157 93 L 155 100 L 157 105 L 158 98 L 157 93 Z M 57 96 L 56 100 L 53 101 L 57 101 L 57 96 Z M 76 97 L 76 103 L 76 100 Q 78 98 76 97 Z M 145 98 L 143 99 L 142 102 L 144 102 L 145 100 L 145 98 Z M 188 99 L 187 104 L 188 104 L 188 99 Z M 137 100 L 137 101 L 142 101 L 137 100 Z M 98 103 L 97 107 L 98 107 L 98 103 Z M 132 103 L 132 104 L 140 104 L 132 103 Z M 129 105 L 127 112 L 128 116 L 129 112 L 129 105 Z M 51 110 L 51 111 L 53 111 L 51 110 Z M 66 110 L 66 111 L 68 111 L 66 110 Z M 56 111 L 56 115 L 57 115 Q 58 110 56 111 Z M 65 111 L 64 114 L 65 114 L 65 111 Z M 163 112 L 163 114 L 165 113 L 163 112 Z M 82 113 L 82 114 L 89 114 L 82 113 Z M 95 113 L 94 120 L 95 120 L 95 113 Z M 141 113 L 141 114 L 143 114 L 141 113 Z M 166 113 L 166 114 L 168 114 L 166 113 Z M 60 116 L 60 117 L 62 117 L 60 116 Z M 116 125 L 116 126 L 118 126 L 116 125 Z M 106 126 L 106 127 L 114 127 L 106 126 Z "></path><path fill="rgb(0,0,0)" stroke="rgb(0,0,0)" stroke-width="1" opacity="1" d="M 1.5 19 L 2 49.5 L 1 49.5 L 1.5 19 Z "></path><path fill="rgb(0,0,0)" stroke="rgb(0,0,0)" stroke-width="1" opacity="1" d="M 1.5 51 L 2 99.5 L 1 99.5 L 1.5 51 Z "></path><path fill="rgb(0,0,0)" stroke="rgb(0,0,0)" stroke-width="1" opacity="1" d="M 139.5 80 Q 145.3 79.3 146 83.5 Q 147.3 89.8 143.5 91 Q 138.3 92.3 137 89.5 L 136 85.5 L 139.5 80 Z M 140 81 L 140 82 L 143 82 L 140 81 Z M 139 82 Q 137 85 140 84 L 139 82 Z M 145 83 L 144 89 L 145 89 L 145 83 Z M 139 88 Q 137 91 140 90 L 139 88 Z "></path><path fill="rgb(0,0,0)" stroke="rgb(0,0,0)" stroke-width="1" opacity="1" d="M 169.5 80 Q 174.8 78.8 176 81.5 Q 176.8 86.3 173.5 87 Q 168.8 87.8 168 84.5 Q 167.3 80.8 169.5 80 Z M 169 81 L 169 85 L 171 85 L 170 84 L 171 82 L 169 81 Z M 174 81 L 174 84 L 172 85 L 172 86 L 175 85 Q 176 80 174 81 Z "></path><path fill="rgb(0,0,0)" stroke="rgb(0,0,0)" stroke-width="1" opacity="1" d="M 57.5 82 L 58 86.5 L 56 85.5 L 57.5 82 Z "></path><path fill="rgb(0,0,0)" stroke="rgb(0,0,0)" stroke-width="1" opacity="1" d="M 109.5 87 Q 113.5 86.5 114 89.5 Q 115.3 94.8 112.5 96 Q 108 97 107 94.5 Q 105.5 87.5 108.5 88 L 109.5 87 Z M 110 88 L 110 89 L 112 89 L 110 88 Z M 109 89 L 108 95 L 110 95 L 109 89 Z M 113 89 L 111 95 L 113 95 L 113 89 Z "></path><path fill="rgb(0,0,0)" stroke="rgb(0,0,0)" stroke-width="1" opacity="1" d="M 170.5 96 Q 175.3 96.3 177 99.5 Q 178 104 175.5 105 Q 168.8 106.7 167 103.5 Q 166 99 168.5 98 L 170.5 98 L 173 97.5 Q 169.7 97.6 170.5 96 Z M 169 99 L 168 104 L 170 104 L 169 99 Z M 176 99 L 174 104 L 176 104 L 176 99 Z "></path><path fill="rgb(0,0,0)" stroke="rgb(0,0,0)" stroke-width="1" opacity="1" d="M 63.5 98 L 65 102 Q 61.2 103.2 63.5 98 Z "></path><path fill="rgb(0,0,0)" stroke="rgb(0,0,0)" stroke-width="1" opacity="1" d="M 105.5 113 L 116.5 113 L 118 114.5 L 116.5 117 Q 113 119.5 105.5 118 L 104 114.5 L 105.5 113 Z M 105 114 Q 103 118 107 117 L 107 115 L 105 114 Z M 115 114 Q 114 117 117 116 Q 118 113 115 114 Z M 113 116 L 113 117 L 115 117 L 113 116 Z "></path><path fill="rgb(153,153,153)" stroke="rgb(153,153,153)" stroke-width="1" opacity="1" d="M 20.5 25 L 28 33.5 L 27 33.5 L 20.5 25 Z "></path><path fill="rgb(153,153,153)" stroke="rgb(153,153,153)" stroke-width="1" opacity="1" d="M 42.5 42 L 66 42.5 L 42.5 43 L 42.5 42 Z "></path><path fill="rgb(153,153,153)" stroke="rgb(153,153,153)" stroke-width="1" opacity="1" d="M 89.5 82 L 95 82.5 L 89.5 83 L 89.5 82 Z "></path><path fill="rgb(153,153,153)" stroke="rgb(153,153,153)" stroke-width="1" opacity="1" d="M 115.5 82 L 124.5 82 L 126 83.5 L 125.5 86 L 125 83 L 115.5 83 L 115.5 82 Z "></path><path fill="rgb(153,153,153)" stroke="rgb(153,153,153)" stroke-width="1" opacity="1" d="M 164.5 90 Q 167.5 91.5 164.5 93 L 164.5 90 Z "></path><path fill="rgb(153,153,153)" stroke="rgb(153,153,153)" stroke-width="1" opacity="1" d="M 130.5 94 L 131.5 96 L 130.5 94 Z "></path><path fill="rgb(153,153,153)" stroke="rgb(153,153,153)" stroke-width="1" opacity="1" d="M 146.5 94 Q 148.8 93.3 148 95.5 L 146.5 94 Z "></path><path fill="rgb(153,153,153)" stroke="rgb(153,153,153)" stroke-width="1" opacity="1" d="M 122.5 107 L 123.5 109 L 122.5 107 Z "></path><path fill="rgb(153,153,153)" stroke="rgb(153,153,153)" stroke-width="1" opacity="1" d="M 98.5 111 L 97.5 113 L 98.5 111 Z "></path><path fill="rgb(153,153,153)" stroke="rgb(153,153,153)" stroke-width="1" opacity="1" d="M 96.5 115 L 97 117.5 L 96 117.5 L 96.5 115 Z "></path><path fill="rgb(9,16,9)" stroke="rgb(9,16,9)" stroke-width="1" opacity="1" d="M 33.5 37 L 22.5 49 L 33.5 37 Z "></path><path fill="rgb(9,16,9)" stroke="rgb(9,16,9)" stroke-width="1" opacity="1" d="M 67.5 42 L 68.5 44 L 67.5 42 Z "></path><path fill="rgb(9,16,9)" stroke="rgb(9,16,9)" stroke-width="1" opacity="1" d="M 62.5 71 L 63 74.5 L 62 74.5 L 62.5 71 Z "></path><path fill="rgb(9,16,9)" stroke="rgb(9,16,9)" stroke-width="1" opacity="1" d="M 139.5 72 L 143 72.5 L 139.5 73 L 139.5 72 Z "></path><path fill="rgb(9,16,9)" stroke="rgb(9,16,9)" stroke-width="1" opacity="1" d="M 170.5 72 L 174 72.5 L 170.5 73 L 170.5 72 Z "></path><path fill="rgb(9,16,9)" stroke="rgb(9,16,9)" stroke-width="1" opacity="1" d="M 50.5 77 L 48.5 80 L 50.5 77 Z "></path><path fill="rgb(9,16,9)" stroke="rgb(9,16,9)" stroke-width="1" opacity="1" d="M 62.5 82 L 63 88.5 L 62 88.5 L 62.5 82 Z "></path><path fill="rgb(9,16,9)" stroke="rgb(9,16,9)" stroke-width="1" opacity="1" d="M 127.5 84 L 128 87.5 L 127 87.5 L 127.5 84 Z "></path><path fill="rgb(9,16,9)" stroke="rgb(9,16,9)" stroke-width="1" opacity="1" d="M 182.5 94 L 183.5 96 L 182.5 94 Z "></path><path fill="rgb(9,16,9)" stroke="rgb(9,16,9)" stroke-width="1" opacity="1" d="M 145.5 96 L 146.5 98 L 145.5 96 Z "></path><path fill="rgb(9,16,9)" stroke="rgb(9,16,9)" stroke-width="1" opacity="1" d="M 62 97 L 64 97.5 L 63 101.5 L 63.5 103 L 62 102.5 L 62 97 Z "></path><path fill="rgb(9,16,9)" stroke="rgb(9,16,9)" stroke-width="1" opacity="1" d="M 120.5 98 L 119.5 100 L 120.5 98 Z "></path><path fill="rgb(9,16,9)" stroke="rgb(9,16,9)" stroke-width="1" opacity="1" d="M 55.5 109 L 58 109.5 L 55.5 110 L 55.5 109 Z "></path><path fill="rgb(9,16,9)" stroke="rgb(9,16,9)" stroke-width="1" opacity="1" d="M 63.5 109 L 63 110.5 L 62.5 115 L 62 110.5 L 63.5 109 Z "></path><path fill="rgb(9,16,9)" stroke="rgb(9,16,9)" stroke-width="1" opacity="1" d="M 133.5 112 L 138 112.5 L 133.5 113 L 133.5 112 Z "></path><path fill="rgb(9,16,9)" stroke="rgb(9,16,9)" stroke-width="1" opacity="1" d="M 170.5 112 L 174 112.5 L 170.5 113 L 170.5 112 Z "></path><path fill="rgb(254,254,254)" stroke="rgb(254,254,254)" stroke-width="1" opacity="1" d="M 199.5 0 L 201.5 1 L 203 0.5 Q 203.8 3.1 200.5 2 L 199.5 0 Z "></path><path fill="rgb(254,254,254)" stroke="rgb(254,254,254)" stroke-width="1" opacity="1" d="M 202.5 3 L 203 161.5 L 202.5 164 L 200 163.5 Q 199.3 161.3 201.5 162 L 202 159.5 L 202.5 3 Z "></path><path fill="rgb(254,254,254)" stroke="rgb(254,254,254)" stroke-width="1" opacity="1" d="M 19.5 19 Q 21.8 18.3 21 20.5 L 33 32.5 L 32.5 35 L 21 45.5 L 20.5 48 L 19 46.5 L 19.5 44 L 20.5 45 L 29 36.5 Q 28.3 34.3 30.5 35 L 30 33.5 Q 30.8 31.3 28.5 32 L 19.5 22 L 18 21.5 L 20 20.5 L 19.5 19 Z "></path><path fill="rgb(254,254,254)" stroke="rgb(254,254,254)" stroke-width="1" opacity="1" d="M 43.5 45 L 45.5 46 L 62.5 46 L 66 45 L 65.5 48 L 43.5 48 Q 40.5 46.5 43.5 45 Z "></path><path fill="rgb(254,254,254)" stroke="rgb(254,254,254)" stroke-width="1" opacity="1" d="M 93.5 71 L 93.5 73 Q 96.1 72.2 95 75.5 L 93.5 75 L 88 77.5 L 87 82.5 Q 88.3 85.7 93 85.5 Q 88.3 85.3 87 88.5 L 86.5 109 L 86 88.5 L 86 86.5 L 87 83.5 L 86 78.5 L 86.5 77 Q 84.3 76.3 85 78.5 L 83 83.5 L 84 86.5 L 84 88.5 L 84 108.5 L 82.5 110 L 83 108.5 L 83 88.5 L 80 85.5 Q 83.1 83.7 81.5 82 L 83 82.5 Q 82.3 76.3 85.5 74 L 87 74.5 Q 86.3 72.3 88.5 73 L 93.5 71 Z M 88 84 L 87 87 L 88 87 L 88 84 Z "></path><path fill="rgb(254,254,254)" stroke="rgb(254,254,254)" stroke-width="1" opacity="1" d="M 139.5 75 L 147 76 L 149.5 80 Q 152.1 79.2 151 82.5 Q 154.8 84.3 151.5 86 L 150 85.5 L 149 89.5 L 150 91.5 L 149.5 94 L 147.5 91 L 149 91.5 L 148 89.5 Q 150.5 88 147 86.5 L 149.5 83 L 147 82.5 L 149 81.5 L 144.5 77 L 143 77.5 L 142.5 76 L 140.5 77 L 139 76.5 L 138.5 78 L 138 76.5 L 139.5 75 Z "></path><path fill="rgb(254,254,254)" stroke="rgb(254,254,254)" stroke-width="1" opacity="1" d="M 166.5 75 L 169 76.5 L 169.5 75 L 175 75 L 175.5 77 L 178 75.5 L 178 78 L 182 80 L 182 83.5 L 177 87.5 L 178 88.5 L 175.5 92 L 178 93.5 L 176 93.5 L 178.5 97 L 179.5 95 L 180 97 L 182 97.5 L 181.5 99 L 184 100.5 L 185 103.5 L 183 103.5 Q 183.8 105.8 181.5 105 L 177.5 110 L 175.5 109 Q 174.3 111.2 169.5 110 Q 168 106.5 166.5 109 Q 164.3 109.8 165 107.5 L 164 107.5 L 163.5 109 L 162 106.5 L 162.5 105 L 160 103.5 L 161 101.5 L 160 100.5 L 165 95.5 L 166 92 L 168 91.5 L 165 89.5 L 163 86.5 L 163.5 85 L 162 85 L 162 80 Q 165 81.3 164 77.5 L 166 77.5 L 166.5 75 Z M 172 76 L 170 77 L 168 77 Q 165 78 167 80 L 164 85 L 167 85 L 170 90 L 169 93 L 171 92 L 174 93 L 174 90 L 177 85 L 180 85 L 179 82 L 172 76 Z M 167 87 L 166 89 L 169 91 L 167 87 Z M 168 93 L 166 96 Q 162 97 165 99 L 164 104 Q 165 106 167 104 L 167 106 Q 169 105 168 108 L 170 107 L 174 108 L 176 108 Q 175 105 178 106 L 178 104 L 180 104 L 180 100 L 178 99 L 177 96 Q 174 97 175 94 L 174 94 L 172 93 L 170 94 L 168 93 Z "></path><path fill="rgb(254,254,254)" stroke="rgb(254,254,254)" stroke-width="1" opacity="1" d="M 135 76 Q 137.7 74.9 137 77.5 L 134 80.5 L 134 82.5 L 133.5 85 L 133 82 Q 130 83 131 80 L 135 77.5 L 135 76 Z "></path><path fill="rgb(254,254,254)" stroke="rgb(254,254,254)" stroke-width="1" opacity="1" d="M 131.5 83 L 132 84.5 L 131 87.5 L 131.5 89 Q 128.1 89.9 130 84.5 L 131.5 83 Z "></path><path fill="rgb(254,254,254)" stroke="rgb(254,254,254)" stroke-width="1" opacity="1" d="M 104.5 84 L 106.5 85 L 108.5 84 L 108.5 85 Q 106.3 84.3 107 86.5 Q 105 84.8 103 88.5 L 105 95.5 L 104 97.5 L 107 99 Q 108.1 101.7 105.5 101 L 104 101.5 L 105 99.5 L 103 96.5 L 103.5 95 L 100 94.5 L 101.5 92 L 103 92.5 L 102.5 90 Q 101.2 92.3 100 89.5 L 103 87.5 L 102 85.5 L 103 85.5 L 103.5 87 L 104.5 84 Z "></path><path fill="rgb(254,254,254)" stroke="rgb(254,254,254)" stroke-width="1" opacity="1" d="M 115.5 85 L 118.5 87 L 118.5 85 L 121 85.5 L 119 88.5 L 121 92.5 L 120 95 L 118 95.5 Q 120.3 96.8 117.5 98 L 116.5 96 L 115.5 99 L 113 98.5 L 118 94.5 L 116 91.5 L 117 89.5 L 115.5 85 Z "></path><path fill="rgb(254,254,254)" stroke="rgb(254,254,254)" stroke-width="1" opacity="1" d="M 133.5 87 L 135 90.5 Q 132.3 92.2 136.5 94 L 138.5 94 L 146.5 93 L 146.5 94 L 138.5 97 L 135 96 L 134.5 94 Q 133.3 96.3 132 93.5 L 132.5 92 L 130 91.5 L 133 90 L 133.5 87 Z "></path><path fill="rgb(254,254,254)" stroke="rgb(254,254,254)" stroke-width="1" opacity="1" d="M 151.5 95 Q 154.3 96.3 152 97.5 L 151 102 L 149 102.5 L 149.5 104 L 146 106.5 L 145.5 108 L 144.5 106 L 142.5 109 L 140 107.5 Q 141.3 104.8 142.5 107 L 146 103.5 L 148 100.5 L 149.5 97 Q 152 97.7 151.5 95 Z "></path><path fill="rgb(254,254,254)" stroke="rgb(254,254,254)" stroke-width="1" opacity="1" d="M 102.5 102 L 105 106 L 108 107.5 L 106 108.5 L 112.5 109 L 114.5 108 L 116.5 108 L 118.5 107 L 120.5 110 L 122 109.5 L 121.5 111 L 124 112.5 L 123 117 L 119 118.5 L 119.5 120 L 118 119.5 Q 118.8 122.1 115.5 121 L 107.5 123 L 104 122 L 104.5 120 L 110.5 122 L 113.5 120 L 115.5 120 L 119 117.5 Q 118.3 115.3 120.5 116 L 122 113.5 Q 119.3 115.4 116.5 110 L 105.5 110 L 102.5 112 L 104 109.5 L 103 107.5 L 104.5 108 L 106 107.5 Q 104.2 103.2 102.5 106 Q 99.9 106.7 101 104 L 103 103.5 L 102.5 102 Z "></path><path fill="rgb(254,254,254)" stroke="rgb(254,254,254)" stroke-width="1" opacity="1" d="M 134.5 107 L 139 108 L 139 110 L 133 110 L 134.5 107 Z "></path><path fill="rgb(254,254,254)" stroke="rgb(254,254,254)" stroke-width="1" opacity="1" d="M 98.5 113 L 100.5 114 L 102 113.5 L 101 115.5 L 101.5 117 L 100 117.5 Q 105.3 119.7 101.5 122 L 99 115.5 L 99.5 114 L 98.5 113 Z "></path><path fill="rgb(1,1,1)" stroke="rgb(1,1,1)" stroke-width="1" opacity="1" d="M 2.5 4 L 3 159.5 L 2 159.5 L 2.5 4 Z "></path><path fill="rgb(1,1,1)" stroke="rgb(1,1,1)" stroke-width="1" opacity="1" d="M 197.5 4 L 198 159.5 L 197 159.5 L 197.5 4 Z "></path><path fill="rgb(1,1,1)" stroke="rgb(1,1,1)" stroke-width="1" opacity="1" d="M 18.5 14 L 17.5 16 L 18.5 14 Z "></path><path fill="rgb(1,1,1)" stroke="rgb(1,1,1)" stroke-width="1" opacity="1" d="M 16.5 24 L 26 32.5 L 21 37.5 L 22 38.5 L 18.5 42 L 17.5 41 L 15 42.5 L 24 32.5 L 16.5 24 Z "></path><path fill="rgb(1,1,1)" stroke="rgb(1,1,1)" stroke-width="1" opacity="1" d="M 36.5 35 L 37 36.5 L 35 37.5 L 36.5 35 Z "></path><path fill="rgb(1,1,1)" stroke="rgb(1,1,1)" stroke-width="1" opacity="1" d="M 43.5 40 L 65 40.5 L 43.5 41 L 43.5 40 Z "></path><path fill="rgb(1,1,1)" stroke="rgb(1,1,1)" stroke-width="1" opacity="1" d="M 68.5 41 L 71 44.5 L 69 45.5 L 70 43.5 L 68.5 41 Z "></path><path fill="rgb(1,1,1)" stroke="rgb(1,1,1)" stroke-width="1" opacity="1" d="M 38.5 43 L 37.5 45 L 38.5 43 Z "></path><path fill="rgb(1,1,1)" stroke="rgb(1,1,1)" stroke-width="1" opacity="1" d="M 14.5 47 Q 15.9 51.1 21 51.5 L 18.5 52 L 14.5 47 Z "></path><path fill="rgb(1,1,1)" stroke="rgb(1,1,1)" stroke-width="1" opacity="1" d="M 37.5 47 L 41.5 51 L 66.5 51 L 68 50.5 L 66.5 52 L 41.5 52 L 37.5 47 Z "></path><path fill="rgb(1,1,1)" stroke="rgb(1,1,1)" stroke-width="1" opacity="1" d="M 23.5 49 L 22.5 51 L 23.5 49 Z "></path><path fill="rgb(1,1,1)" stroke="rgb(1,1,1)" stroke-width="1" opacity="1" d="M 92.5 68 L 95 68.5 L 92.5 69 L 92.5 68 Z "></path><path fill="rgb(1,1,1)" stroke="rgb(1,1,1)" stroke-width="1" opacity="1" d="M 83.5 70 L 80.5 74 L 83.5 70 Z "></path><path fill="rgb(1,1,1)" stroke="rgb(1,1,1)" stroke-width="1" opacity="1" d="M 171.5 70 L 174 70.5 L 171.5 71 L 171.5 70 Z "></path><path fill="rgb(1,1,1)" stroke="rgb(1,1,1)" stroke-width="1" opacity="1" d="M 135.5 71 L 134.5 73 L 133 72.5 L 135.5 71 Z "></path><path fill="rgb(1,1,1)" stroke="rgb(1,1,1)" stroke-width="1" opacity="1" d="M 100.5 73 L 99.5 75 L 100.5 73 Z "></path><path fill="rgb(1,1,1)" stroke="rgb(1,1,1)" stroke-width="1" opacity="1" d="M 162.5 73 L 159.5 77 L 162.5 73 Z "></path><path fill="rgb(1,1,1)" stroke="rgb(1,1,1)" stroke-width="1" opacity="1" d="M 131.5 74 L 129.5 77 L 131.5 74 Z "></path><path fill="rgb(1,1,1)" stroke="rgb(1,1,1)" stroke-width="1" opacity="1" d="M 184.5 76 L 183.5 78 L 184.5 76 Z "></path><path fill="rgb(1,1,1)" stroke="rgb(1,1,1)" stroke-width="1" opacity="1" d="M 127.5 78 L 128 79.5 L 125.5 81 L 125.5 80 Q 128 80.7 127.5 78 Z "></path><path fill="rgb(1,1,1)" stroke="rgb(1,1,1)" stroke-width="1" opacity="1" d="M 91.5 79 L 95.5 80 L 97 79.5 L 93.5 81 L 91.5 80 L 90 80.5 L 91.5 79 Z "></path><path fill="rgb(1,1,1)" stroke="rgb(1,1,1)" stroke-width="1" opacity="1" d="M 108.5 79 L 113 79.5 L 108.5 80 L 108.5 79 Z "></path><path fill="rgb(1,1,1)" stroke="rgb(1,1,1)" stroke-width="1" opacity="1" d="M 115.5 80 L 124 80.5 L 115.5 81 L 115.5 80 Z "></path><path fill="rgb(1,1,1)" stroke="rgb(1,1,1)" stroke-width="1" opacity="1" d="M 157.5 80 L 158 84 L 156 83.5 L 157.5 80 Z "></path><path fill="rgb(1,1,1)" stroke="rgb(1,1,1)" stroke-width="1" opacity="1" d="M 186.5 80 L 187 83.5 L 186 83.5 L 186.5 80 Z "></path><path fill="rgb(1,1,1)" stroke="rgb(1,1,1)" stroke-width="1" opacity="1" d="M 102.5 81 L 101.5 83 L 102.5 81 Z "></path><path fill="rgb(1,1,1)" stroke="rgb(1,1,1)" stroke-width="1" opacity="1" d="M 76.5 82 L 74.5 85 L 76.5 82 Z "></path><path fill="rgb(1,1,1)" stroke="rgb(1,1,1)" stroke-width="1" opacity="1" d="M 173.5 84 L 175 84.5 L 172.5 86 L 173.5 84 Z "></path><path fill="rgb(1,1,1)" stroke="rgb(1,1,1)" stroke-width="1" opacity="1" d="M 144.5 85 L 145 87.5 L 144 87.5 L 144.5 85 Z "></path><path fill="rgb(1,1,1)" stroke="rgb(1,1,1)" stroke-width="1" opacity="1" d="M 158.5 86 L 160.5 89 L 162 88.5 L 161.5 91 L 158.5 86 Z "></path><path fill="rgb(1,1,1)" stroke="rgb(1,1,1)" stroke-width="1" opacity="1" d="M 74.5 88 L 76.5 91 L 74.5 88 Z "></path><path fill="rgb(1,1,1)" stroke="rgb(1,1,1)" stroke-width="1" opacity="1" d="M 109.5 88 L 112 88.5 L 109.5 89 L 109.5 88 Z "></path><path fill="rgb(1,1,1)" stroke="rgb(1,1,1)" stroke-width="1" opacity="1" d="M 124.5 88 L 125 90.5 L 124 90.5 L 124.5 88 Z "></path><path fill="rgb(1,1,1)" stroke="rgb(1,1,1)" stroke-width="1" opacity="1" d="M 138.5 88 L 139.5 90 L 138.5 88 Z "></path><path fill="rgb(1,1,1)" stroke="rgb(1,1,1)" stroke-width="1" opacity="1" d="M 108.5 90 L 110 94.5 L 108 93.5 L 108.5 90 Z "></path><path fill="rgb(1,1,1)" stroke="rgb(1,1,1)" stroke-width="1" opacity="1" d="M 181.5 90 L 183 92.5 L 181 91.5 L 181.5 90 Z "></path><path fill="rgb(1,1,1)" stroke="rgb(1,1,1)" stroke-width="1" opacity="1" d="M 78.5 91 L 79 110.5 L 78 110.5 L 78.5 91 Z "></path><path fill="rgb(1,1,1)" stroke="rgb(1,1,1)" stroke-width="1" opacity="1" d="M 124.5 93 L 125 94.5 L 123 95.5 L 124.5 93 Z "></path><path fill="rgb(1,1,1)" stroke="rgb(1,1,1)" stroke-width="1" opacity="1" d="M 128.5 94 L 129.5 96 L 131 95.5 L 130.5 98 Q 126.9 96.9 128.5 94 Z "></path><path fill="rgb(1,1,1)" stroke="rgb(1,1,1)" stroke-width="1" opacity="1" d="M 184.5 94 L 186 96.5 L 185 96.5 L 184.5 94 Z "></path><path fill="rgb(1,1,1)" stroke="rgb(1,1,1)" stroke-width="1" opacity="1" d="M 99.5 97 L 99.5 100 Q 96.5 98.5 99.5 97 Z "></path><path fill="rgb(1,1,1)" stroke="rgb(1,1,1)" stroke-width="1" opacity="1" d="M 122.5 97 L 123 98.5 L 118.5 102 L 118.5 101 L 122 98.5 L 122.5 97 Z "></path><path fill="rgb(1,1,1)" stroke="rgb(1,1,1)" stroke-width="1" opacity="1" d="M 156.5 97 L 157 100 L 155 99.5 L 156.5 97 Z "></path><path fill="rgb(1,1,1)" stroke="rgb(1,1,1)" stroke-width="1" opacity="1" d="M 142.5 99 Q 145.5 100.5 142.5 102 L 136 100.5 L 142.5 99 Z "></path><path fill="rgb(1,1,1)" stroke="rgb(1,1,1)" stroke-width="1" opacity="1" d="M 98.5 102 L 98 103.5 L 97.5 105 L 97 103.5 L 98.5 102 Z "></path><path fill="rgb(1,1,1)" stroke="rgb(1,1,1)" stroke-width="1" opacity="1" d="M 108.5 102 L 110.5 103 L 112 102.5 L 109.5 104 L 108.5 102 Z "></path><path fill="rgb(1,1,1)" stroke="rgb(1,1,1)" stroke-width="1" opacity="1" d="M 118.5 103 L 121 104.5 L 119.5 104 L 118.5 103 Z "></path><path fill="rgb(1,1,1)" stroke="rgb(1,1,1)" stroke-width="1" opacity="1" d="M 122.5 105 L 126 107.5 L 123.5 106 L 122.5 105 Z "></path><path fill="rgb(1,1,1)" stroke="rgb(1,1,1)" stroke-width="1" opacity="1" d="M 97.5 106 L 98.5 108 L 97.5 106 Z "></path><path fill="rgb(1,1,1)" stroke="rgb(1,1,1)" stroke-width="1" opacity="1" d="M 158.5 107 L 160.5 110 L 162 109.5 L 161.5 111 L 166 113.5 L 164.5 113 L 158 108.5 L 158.5 107 Z "></path><path fill="rgb(1,1,1)" stroke="rgb(1,1,1)" stroke-width="1" opacity="1" d="M 184.5 108 L 182.5 111 L 184.5 108 Z "></path><path fill="rgb(1,1,1)" stroke="rgb(1,1,1)" stroke-width="1" opacity="1" d="M 97.5 109 L 96.5 111 L 97.5 109 Z "></path><path fill="rgb(1,1,1)" stroke="rgb(1,1,1)" stroke-width="1" opacity="1" d="M 147.5 109 L 148.5 111 L 147.5 109 Z "></path><path fill="rgb(1,1,1)" stroke="rgb(1,1,1)" stroke-width="1" opacity="1" d="M 127 111 L 129 111.5 L 127 112.5 L 127 111 Z "></path><path fill="rgb(1,1,1)" stroke="rgb(1,1,1)" stroke-width="1" opacity="1" d="M 95.5 112 L 94.5 114 L 95.5 112 Z "></path><path fill="rgb(1,1,1)" stroke="rgb(1,1,1)" stroke-width="1" opacity="1" d="M 106.5 114 L 106.5 117 Q 103.5 115.5 106.5 114 Z "></path><path fill="rgb(1,1,1)" stroke="rgb(1,1,1)" stroke-width="1" opacity="1" d="M 115.5 114 L 116.5 116 Q 113.7 116.7 115.5 114 Z "></path><path fill="rgb(1,1,1)" stroke="rgb(1,1,1)" stroke-width="1" opacity="1" d="M 94.5 115 L 95 117.5 L 94 117.5 L 94.5 115 Z "></path><path fill="rgb(1,1,1)" stroke="rgb(1,1,1)" stroke-width="1" opacity="1" d="M 96.5 121 L 97.5 123 L 96.5 121 Z "></path><path fill="rgb(1,1,1)" stroke="rgb(1,1,1)" stroke-width="1" opacity="1" d="M 111.5 126 L 114 126.5 L 111.5 127 L 111.5 126 Z "></path><path fill="rgb(9,90,9)" stroke="rgb(9,90,9)" stroke-width="1" opacity="1" d="M 58.5 71 L 59 74.5 L 58 74.5 L 58.5 71 Z "></path><path fill="rgb(9,90,9)" stroke="rgb(9,90,9)" stroke-width="1" opacity="1" d="M 65.5 75 L 68 75.5 L 65.5 76 L 65.5 75 Z "></path><path fill="rgb(9,90,9)" stroke="rgb(9,90,9)" stroke-width="1" opacity="1" d="M 57.5 81 Q 60.5 80.5 59 87.5 L 58 87.5 L 57.5 81 Z "></path><path fill="rgb(9,90,9)" stroke="rgb(9,90,9)" stroke-width="1" opacity="1" d="M 62.5 81 L 65 81.5 L 62.5 82 L 62.5 81 Z "></path><path fill="rgb(9,90,9)" stroke="rgb(9,90,9)" stroke-width="1" opacity="1" d="M 47.5 82 L 48 86.5 L 47 86.5 L 47.5 82 Z "></path><path fill="rgb(9,90,9)" stroke="rgb(9,90,9)" stroke-width="1" opacity="1" d="M 55.5 85 L 56.5 87 L 55.5 85 Z "></path><path fill="rgb(9,90,9)" stroke="rgb(9,90,9)" stroke-width="1" opacity="1" d="M 51.5 91 L 52.5 93 L 51.5 91 Z "></path><path fill="rgb(9,90,9)" stroke="rgb(9,90,9)" stroke-width="1" opacity="1" d="M 69.5 92 L 72.5 96 L 69.5 92 Z "></path><path fill="rgb(9,90,9)" stroke="rgb(9,90,9)" stroke-width="1" opacity="1" d="M 56.5 94 L 59 95.5 L 58.5 103 L 58 95 L 56.5 94 Z "></path><path fill="rgb(9,90,9)" stroke="rgb(9,90,9)" stroke-width="1" opacity="1" d="M 73.5 97 L 74 101.5 L 73 101.5 L 73.5 97 Z "></path><path fill="rgb(9,90,9)" stroke="rgb(9,90,9)" stroke-width="1" opacity="1" d="M 65.5 99 L 66 101.5 L 65 101.5 L 65.5 99 Z "></path><path fill="rgb(9,90,9)" stroke="rgb(9,90,9)" stroke-width="1" opacity="1" d="M 47 100 L 49 100.5 Q 46.8 101.8 48 106.5 L 48.5 108 L 47 106.5 L 47 100 Z "></path><path fill="rgb(9,90,9)" stroke="rgb(9,90,9)" stroke-width="1" opacity="1" d="M 71.5 105 L 70.5 107 L 71.5 105 Z "></path><path fill="rgb(9,90,9)" stroke="rgb(9,90,9)" stroke-width="1" opacity="1" d="M 58.5 109 L 59 114 L 62 114.5 L 59.5 115 Q 56.6 113.6 58.5 109 Z "></path><path fill="rgb(0,1,0)" stroke="rgb(0,1,0)" stroke-width="1" opacity="1" d="M 58.5 70 L 63 70.5 L 58.5 71 L 58.5 70 Z "></path><path fill="rgb(0,1,0)" stroke="rgb(0,1,0)" stroke-width="1" opacity="1" d="M 56.5 71 L 57 74 L 54 73.5 L 56 73 L 56.5 71 Z "></path><path fill="rgb(0,1,0)" stroke="rgb(0,1,0)" stroke-width="1" opacity="1" d="M 66.5 73 L 69 73.5 L 66.5 74 L 66.5 73 Z "></path><path fill="rgb(0,1,0)" stroke="rgb(0,1,0)" stroke-width="1" opacity="1" d="M 70.5 74 L 72 74.5 L 69.5 76 L 70.5 74 Z "></path><path fill="rgb(0,1,0)" stroke="rgb(0,1,0)" stroke-width="1" opacity="1" d="M 50.5 75 L 47 79.5 L 45.5 87 L 45 81.5 L 50.5 75 Z "></path><path fill="rgb(0,1,0)" stroke="rgb(0,1,0)" stroke-width="1" opacity="1" d="M 74.5 78 L 75 79.5 L 73.5 82 L 73 80.5 L 74.5 78 Z "></path><path fill="rgb(0,1,0)" stroke="rgb(0,1,0)" stroke-width="1" opacity="1" d="M 65.5 82 L 65 83.5 Q 63.1 88.9 66.5 88 L 70 90.5 L 68.5 90 L 64 87.5 Q 63 83 65.5 82 Z "></path><path fill="rgb(0,1,0)" stroke="rgb(0,1,0)" stroke-width="1" opacity="1" d="M 66.5 84 L 71 85.5 L 69.5 86 L 66.5 85 L 66.5 84 Z "></path><path fill="rgb(0,1,0)" stroke="rgb(0,1,0)" stroke-width="1" opacity="1" d="M 48.5 89 L 48 90.5 L 50.5 94 L 47 90.5 L 48.5 89 Z "></path><path fill="rgb(0,1,0)" stroke="rgb(0,1,0)" stroke-width="1" opacity="1" d="M 71.5 91 L 73.5 94 L 71 93.5 L 71.5 91 Z "></path><path fill="rgb(0,1,0)" stroke="rgb(0,1,0)" stroke-width="1" opacity="1" d="M 97.5 93 L 98 95.5 L 97 95.5 L 97.5 93 Z "></path><path fill="rgb(0,1,0)" stroke="rgb(0,1,0)" stroke-width="1" opacity="1" d="M 55.5 94 L 54.5 96 L 55.5 94 Z "></path><path fill="rgb(0,1,0)" stroke="rgb(0,1,0)" stroke-width="1" opacity="1" d="M 56.5 96 L 57 101 L 52.5 102 L 53.5 100 L 56 100 L 56.5 96 Z "></path><path fill="rgb(0,1,0)" stroke="rgb(0,1,0)" stroke-width="1" opacity="1" d="M 75.5 97 Q 78.3 98.3 76 99.5 L 75.5 103 L 75.5 97 Z "></path><path fill="rgb(0,1,0)" stroke="rgb(0,1,0)" stroke-width="1" opacity="1" d="M 45.5 100 L 47 106.5 L 45 107 L 45.5 100 Z "></path><path fill="rgb(0,1,0)" stroke="rgb(0,1,0)" stroke-width="1" opacity="1" d="M 74.5 104 L 69.5 110 L 65 111 L 64.5 114 L 64 111.5 L 64.5 109 L 67.5 110 L 74.5 104 Z "></path><path fill="rgb(0,1,0)" stroke="rgb(0,1,0)" stroke-width="1" opacity="1" d="M 49.5 108 L 48.5 110 L 47 109.5 L 49.5 108 Z "></path><path fill="rgb(0,1,0)" stroke="rgb(0,1,0)" stroke-width="1" opacity="1" d="M 53.5 109 L 52.5 111 L 50 110.5 L 53.5 109 Z "></path><path fill="rgb(0,1,0)" stroke="rgb(0,1,0)" stroke-width="1" opacity="1" d="M 55.5 111 Q 58.5 110.1 57 114.5 L 56 114.5 L 55.5 111 Z "></path><path fill="rgb(0,1,0)" stroke="rgb(0,1,0)" stroke-width="1" opacity="1" d="M 59.5 116 L 62 116.5 L 59.5 117 L 59.5 116 Z "></path><path fill="rgb(206,206,206)" stroke="rgb(206,206,206)" stroke-width="1" opacity="1" d="M 3.5 0 L 197 0.5 L 3.5 1 L 3.5 0 Z "></path><path fill="rgb(206,206,206)" stroke="rgb(206,206,206)" stroke-width="1" opacity="1" d="M 26.5 34 L 18.5 43 L 26.5 34 Z "></path><path fill="rgb(206,206,206)" stroke="rgb(206,206,206)" stroke-width="1" opacity="1" d="M 33.5 36 L 21.5 49 L 33.5 36 Z "></path><path fill="rgb(206,206,206)" stroke="rgb(206,206,206)" stroke-width="1" opacity="1" d="M 163.5 75 L 161.5 78 L 163.5 75 Z "></path><path fill="rgb(206,206,206)" stroke="rgb(206,206,206)" stroke-width="1" opacity="1" d="M 180.5 75 L 182.5 78 L 180.5 75 Z "></path><path fill="rgb(206,206,206)" stroke="rgb(206,206,206)" stroke-width="1" opacity="1" d="M 137.5 80 L 136.5 82 L 137.5 80 Z "></path><path fill="rgb(206,206,206)" stroke="rgb(206,206,206)" stroke-width="1" opacity="1" d="M 144.5 80 L 145.5 82 L 144.5 80 Z "></path><path fill="rgb(206,206,206)" stroke="rgb(206,206,206)" stroke-width="1" opacity="1" d="M 95.5 83 L 96 87.5 L 95 87.5 L 95.5 83 Z "></path><path fill="rgb(206,206,206)" stroke="rgb(206,206,206)" stroke-width="1" opacity="1" d="M 135.5 84 L 136 87.5 L 135 87.5 L 135.5 84 Z "></path><path fill="rgb(206,206,206)" stroke="rgb(206,206,206)" stroke-width="1" opacity="1" d="M 154.5 87 L 155 92.5 L 154 92.5 L 154.5 87 Z "></path><path fill="rgb(206,206,206)" stroke="rgb(206,206,206)" stroke-width="1" opacity="1" d="M 162.5 88 L 163.5 90 L 162.5 88 Z "></path><path fill="rgb(206,206,206)" stroke="rgb(206,206,206)" stroke-width="1" opacity="1" d="M 88.5 89 L 89 109.5 L 88 109.5 L 88.5 89 Z "></path><path fill="rgb(206,206,206)" stroke="rgb(206,206,206)" stroke-width="1" opacity="1" d="M 178.5 90 L 178.5 93 Q 175.5 91.5 178.5 90 Z "></path><path fill="rgb(206,206,206)" stroke="rgb(206,206,206)" stroke-width="1" opacity="1" d="M 181.5 94 L 182.5 96 L 181.5 94 Z "></path><path fill="rgb(206,206,206)" stroke="rgb(206,206,206)" stroke-width="1" opacity="1" d="M 168.5 96 L 166.5 99 L 168.5 96 Z "></path><path fill="rgb(206,206,206)" stroke="rgb(206,206,206)" stroke-width="1" opacity="1" d="M 100.5 97 L 101.5 99 L 100.5 97 Z "></path><path fill="rgb(206,206,206)" stroke="rgb(206,206,206)" stroke-width="1" opacity="1" d="M 107.5 101 L 113 101.5 L 107.5 102 L 107.5 101 Z "></path><path fill="rgb(206,206,206)" stroke="rgb(206,206,206)" stroke-width="1" opacity="1" d="M 107.5 111 L 114 111.5 L 107.5 112 L 107.5 111 Z "></path><path fill="rgb(206,206,206)" stroke="rgb(206,206,206)" stroke-width="1" opacity="1" d="M 103.5 117 L 104.5 119 L 103.5 117 Z "></path><path fill="rgb(206,206,206)" stroke="rgb(206,206,206)" stroke-width="1" opacity="1" d="M 108.5 119 L 111 119.5 L 108.5 120 L 108.5 119 Z "></path><path fill="rgb(255,255,255)" stroke="rgb(255,255,255)" stroke-width="1" opacity="1" d="M 1.5 0 L 0.5 2 L 1.5 0 Z "></path><path fill="rgb(255,255,255)" stroke="rgb(255,255,255)" stroke-width="1" opacity="1" d="M 198.5 0 L 202 4.5 L 202 159.5 L 200 164 L 198 163.5 L 201 159.5 L 201 4.5 L 198.5 0 Z "></path><path fill="rgb(255,255,255)" stroke="rgb(255,255,255)" stroke-width="1" opacity="1" d="M 203.5 0 L 204 163.5 L 201 163.5 L 203 161.5 L 203 3.5 L 203 1.5 L 203.5 0 Z "></path><path fill="rgb(255,255,255)" stroke="rgb(255,255,255)" stroke-width="1" opacity="1" d="M 19.5 17 L 35 31.5 L 35 34.5 L 20.5 49 L 17 48 L 17 44.5 L 28 32.5 L 17 21.5 L 17 18 L 19.5 17 Z M 20 18 L 18 20 L 18 22 L 29 33 L 29 34 L 33 36 Q 35 35 34 32 L 31 32 L 19 21 L 22 20 L 20 18 Z M 29 35 L 29 37 L 31 36 L 29 35 Z M 20 43 L 18 45 L 20 48 L 22 47 Q 21 44 20 46 L 20 45 L 20 43 Z "></path><path fill="rgb(255,255,255)" stroke="rgb(255,255,255)" stroke-width="1" opacity="1" d="M 41.5 43 L 66.5 43 L 68 44.5 Q 69.5 48.9 66.5 48 L 65.5 49 L 42.5 49 Q 39.5 48.5 40 44.5 L 41.5 43 Z M 41 44 L 43 48 L 66 48 L 67 47 L 67 44 L 41 44 Z "></path><path fill="rgb(255,255,255)" stroke="rgb(255,255,255)" stroke-width="1" opacity="1" d="M 45.5 45 L 63 45.5 L 45.5 46 L 45.5 45 Z "></path><path fill="rgb(255,255,255)" stroke="rgb(255,255,255)" stroke-width="1" opacity="1" d="M 89.5 71 L 98 72.5 L 95.5 77 L 91.5 76 L 89 77 L 88 83 L 95 83 L 95 88 L 88 88 L 88 110.5 Q 87.8 111.8 81.5 111 L 81.5 110 Q 86.9 110.6 87 109.5 L 87 88.5 L 86 88.5 L 86 108.5 L 84 109 L 83.5 88 L 82.5 109 L 82 88 L 77 88 L 77 85.5 L 82 83 Q 80 74.2 85.5 72 L 89.5 71 Z M 90 72 L 86 73 L 83 76 L 84 83 L 85 77 L 90 74 L 90 76 L 92 75 L 95 76 Q 97 77 96 73 L 90 72 Z M 88 77 L 86 79 L 87 83 L 88 79 L 88 77 Z M 81 84 L 78 85 Q 77 88 82 87 L 84 87 L 84 85 L 83 85 L 81 84 Z M 87 84 L 86 87 L 87 87 L 87 84 Z M 88 84 L 88 87 L 94 87 L 94 84 L 88 84 Z "></path><path fill="rgb(255,255,255)" stroke="rgb(255,255,255)" stroke-width="1" opacity="1" d="M 136.5 74 Q 149.1 71.9 152 79.5 Q 155.7 85.3 154 96.5 Q 152.5 105 146.5 109 Q 140.9 112.6 131 111 L 131 106 L 140.5 106 L 147 100.5 L 148 93 L 145.5 92 Q 144.1 94.6 139.5 94 L 137.5 93 L 137.5 95 L 131 89.5 L 131 87.5 L 132 83.5 L 131.5 82 L 137 77.5 L 137.5 76 L 138 78 L 144.5 77 L 148.5 82 L 147 81.5 L 149 86.5 L 148 89.5 L 150 88.5 L 150.5 85 L 152 88.5 L 151 93.5 L 151 95.5 L 150.5 97 L 149.5 93 Q 149.4 99.9 146 103.5 L 150 104.5 L 149 102.5 L 151 102.5 Q 154.5 96 153 84.5 L 150.5 79 Q 148.7 81.8 147 77.5 L 147.5 76 Q 144 73.5 136.5 75 L 134 76.5 Q 136.8 78.3 132.5 80 L 131 79.5 Q 128.3 83.3 130 91.5 L 132.5 95 L 134 94.5 L 132.5 92 Q 136.2 94 134.5 96 L 139.5 97 L 145.5 94 L 143.5 97 L 137.5 98 L 130 93.5 Q 127.3 89.7 129 81.5 L 132.5 76 L 136.5 74 Z M 132 77 L 132 79 L 134 78 L 132 77 Z M 139 79 L 135 84 L 136 91 L 140 93 L 145 92 L 148 87 L 146 82 Q 145 78 139 79 Z M 135 81 Q 131 83 133 90 L 135 91 L 134 89 Q 133 84 135 83 L 135 81 Z M 148 90 L 146 92 L 148 92 L 148 90 Z M 144 105 L 141 107 L 132 107 L 132 110 L 145 109 L 144 108 L 145 106 L 144 105 Z M 146 106 Q 144 109 147 108 L 146 106 Z "></path><path fill="rgb(255,255,255)" stroke="rgb(255,255,255)" stroke-width="1" opacity="1" d="M 166.5 74 Q 179.5 71.5 183 78.5 Q 184.5 86.5 180.5 89 L 177 90 L 178.5 93 L 184 97.5 L 185 102.5 L 181.5 109 Q 176.8 112.8 166.5 111 L 160 106.5 L 159 100.5 L 162.5 94 L 165.5 93 L 167.5 93 Q 169.8 93.8 169 91.5 L 166 87 L 163.5 86 L 163 87.5 L 166.5 92 Q 159.4 89.6 161 78.5 L 166.5 74 Z M 167 75 L 163 78 L 165 80 Q 167 79 165 78 Q 167 79 169 76 L 169 78 L 171 77 L 176 78 L 175 77 L 178 78 L 180 77 L 178 75 L 167 75 Z M 163 78 L 162 86 L 165 84 L 164 86 L 166 86 L 167 87 L 166 81 L 165 81 L 163 78 Z M 171 78 L 169 79 Q 166 80 167 85 Q 168 89 174 88 Q 178 87 177 81 Q 176 77 171 78 Z M 179 78 L 180 80 Q 181 77 179 78 Z M 182 78 L 181 80 Q 180 82 179 80 L 177 86 L 178 87 L 180 86 L 179 85 L 182 86 L 182 78 Z M 181 86 L 179 88 L 181 88 L 181 86 Z M 169 88 L 169 91 L 171 90 L 169 88 Z M 175 88 L 173 90 L 174 93 L 174 95 L 177 96 L 176 95 L 177 93 L 176 91 L 176 89 L 175 88 Z M 171 92 L 169 94 L 171 94 L 173 94 L 174 94 L 171 92 Z M 165 94 L 166 96 Q 167 93 165 94 Z M 172 94 L 170 95 L 165 101 L 166 105 L 171 107 L 176 106 L 179 102 L 178 100 L 172 94 Z M 179 94 L 179 97 L 181 96 L 179 94 Z M 182 96 Q 180 99 178 98 L 180 102 L 178 106 L 181 104 L 183 106 L 184 103 L 182 96 Z M 162 97 L 160 101 L 161 107 L 167 110 L 178 110 L 180 109 Q 179 106 178 108 L 178 106 L 174 108 L 167 106 L 168 109 L 166 107 L 165 108 L 162 106 L 165 105 L 164 103 L 165 99 Q 163 100 162 97 Z "></path><path fill="rgb(255,255,255)" stroke="rgb(255,255,255)" stroke-width="1" opacity="1" d="M 104.5 83 L 124.5 83 L 125 86 L 121 87 L 122 93.5 L 117.5 100 L 107.5 101 L 106 102.5 L 107.5 106 Q 119.6 103.9 124 109.5 L 125 114.5 L 123 120 Q 117.5 124.2 106.5 124 L 101.5 123 L 98 120.5 L 97 113.5 L 103 110 L 103 108 Q 100.3 109.1 101 106.5 L 100 104.5 L 102.5 101 Q 105.1 101.7 104 99 L 100 96.5 L 99 89.5 L 102.5 84 L 104.5 83 Z M 105 84 L 104 85 Q 101 84 102 87 L 107 87 Q 108 84 113 85 L 117 87 L 117 86 L 121 86 L 124 85 L 105 84 Z M 109 86 L 105 91 L 106 96 L 110 98 L 114 97 Q 116 95 115 89 Q 114 85 109 86 Z M 120 86 L 118 87 L 119 90 L 116 89 Q 115 95 117 98 L 115 99 L 118 99 L 120 97 L 121 93 L 120 86 Z M 102 87 L 100 90 L 101 97 L 102 97 Q 101 94 104 95 L 105 96 L 104 94 L 105 89 Q 103 90 102 87 Z M 104 96 L 102 98 L 104 98 L 104 96 Z M 108 98 L 107 99 Q 104 98 105 101 Q 108 99 115 100 L 114 98 L 112 99 L 108 98 Z M 105 101 L 102 102 L 101 105 L 103 107 L 103 106 L 105 106 L 105 105 L 105 103 L 105 101 Z M 106 106 Q 105 110 113 108 L 113 109 Q 107 111 106 108 Q 103 107 104 110 L 102 111 L 103 113 L 107 110 Q 114 109 118 111 L 117 110 L 122 114 L 122 115 L 121 113 L 119 118 L 121 117 L 123 118 L 124 115 L 123 110 L 119 107 L 108 107 L 106 106 Z M 107 111 L 105 112 L 102 116 L 103 118 L 107 120 Q 114 121 118 118 L 119 114 Q 116 109 107 111 Z M 100 112 Q 97 113 98 119 L 102 118 L 101 116 L 102 114 L 100 115 L 101 113 L 100 112 Z M 102 119 L 100 121 L 102 122 Q 106 121 108 123 L 117 122 L 121 120 L 120 119 L 118 119 L 113 121 L 105 120 Q 103 122 102 119 Z "></path><path fill="rgb(255,255,255)" stroke="rgb(255,255,255)" stroke-width="1" opacity="1" d="M 102.5 90 L 103 92.5 L 101 91.5 L 102.5 90 Z "></path><path fill="rgb(255,255,255)" stroke="rgb(255,255,255)" stroke-width="1" opacity="1" d="M 117.5 94 L 118.5 96 L 117.5 94 Z "></path><path fill="rgb(255,255,255)" stroke="rgb(255,255,255)" stroke-width="1" opacity="1" d="M 120.5 109 L 121.5 111 L 120.5 109 Z "></path><path fill="rgb(255,255,255)" stroke="rgb(255,255,255)" stroke-width="1" opacity="1" d="M 0.5 162 L 1.5 164 Q -1.3 164.7 0.5 162 Z "></path><path fill="rgb(118,118,118)" stroke="rgb(118,118,118)" stroke-width="1" opacity="1" d="M 17.5 22 L 19.5 25 L 17.5 22 Z "></path><path fill="rgb(118,118,118)" stroke="rgb(118,118,118)" stroke-width="1" opacity="1" d="M 68.5 47 L 67.5 49 L 68.5 47 Z "></path><path fill="rgb(118,118,118)" stroke="rgb(118,118,118)" stroke-width="1" opacity="1" d="M 97.5 71 L 98.5 73 L 97.5 71 Z "></path><path fill="rgb(118,118,118)" stroke="rgb(118,118,118)" stroke-width="1" opacity="1" d="M 132.5 75 L 130.5 78 L 132.5 75 Z "></path><path fill="rgb(118,118,118)" stroke="rgb(118,118,118)" stroke-width="1" opacity="1" d="M 90.5 77 L 89.5 79 L 90.5 77 Z "></path><path fill="rgb(118,118,118)" stroke="rgb(118,118,118)" stroke-width="1" opacity="1" d="M 101.5 84 L 100.5 86 L 101.5 84 Z "></path><path fill="rgb(118,118,118)" stroke="rgb(118,118,118)" stroke-width="1" opacity="1" d="M 76.5 85 L 77 88 L 81 88.5 L 77.5 89 Q 75 88 76.5 85 Z "></path><path fill="rgb(118,118,118)" stroke="rgb(118,118,118)" stroke-width="1" opacity="1" d="M 168.5 85 L 169.5 87 L 168.5 85 Z "></path><path fill="rgb(118,118,118)" stroke="rgb(118,118,118)" stroke-width="1" opacity="1" d="M 175.5 85 L 174.5 87 L 175.5 85 Z "></path><path fill="rgb(118,118,118)" stroke="rgb(118,118,118)" stroke-width="1" opacity="1" d="M 182.5 87 L 180.5 90 L 182.5 87 Z "></path><path fill="rgb(118,118,118)" stroke="rgb(118,118,118)" stroke-width="1" opacity="1" d="M 89.5 88 L 95 88.5 L 89.5 89 L 89.5 88 Z "></path><path fill="rgb(118,118,118)" stroke="rgb(118,118,118)" stroke-width="1" opacity="1" d="M 98.5 90 L 99 93.5 L 98 93.5 L 98.5 90 Z "></path><path fill="rgb(118,118,118)" stroke="rgb(118,118,118)" stroke-width="1" opacity="1" d="M 175.5 97 L 176.5 99 L 175.5 97 Z "></path><path fill="rgb(118,118,118)" stroke="rgb(118,118,118)" stroke-width="1" opacity="1" d="M 101.5 101 L 100.5 103 L 101.5 101 Z "></path><path fill="rgb(118,118,118)" stroke="rgb(118,118,118)" stroke-width="1" opacity="1" d="M 144.5 102 L 143.5 104 L 144.5 102 Z "></path><path fill="rgb(118,118,118)" stroke="rgb(118,118,118)" stroke-width="1" opacity="1" d="M 110.5 105 L 118 105.5 L 110.5 106 L 110.5 105 Z "></path><path fill="rgb(118,118,118)" stroke="rgb(118,118,118)" stroke-width="1" opacity="1" d="M 130.5 106 L 131 110.5 L 130 110.5 L 130.5 106 Z "></path><path fill="rgb(118,118,118)" stroke="rgb(118,118,118)" stroke-width="1" opacity="1" d="M 100.5 107 L 101.5 109 L 100.5 107 Z "></path><path fill="rgb(118,118,118)" stroke="rgb(118,118,118)" stroke-width="1" opacity="1" d="M 183.5 107 L 182.5 109 L 183.5 107 Z "></path><path fill="rgb(118,118,118)" stroke="rgb(118,118,118)" stroke-width="1" opacity="1" d="M 81.5 111 L 89 111.5 L 81.5 112 L 81.5 111 Z "></path><path fill="rgb(118,118,118)" stroke="rgb(118,118,118)" stroke-width="1" opacity="1" d="M 117.5 116 L 116.5 118 L 117.5 116 Z "></path><path fill="rgb(118,118,118)" stroke="rgb(118,118,118)" stroke-width="1" opacity="1" d="M 3.5 163 L 197 163.5 L 3.5 164 L 3.5 163 Z "></path><path fill="rgb(251,251,251)" stroke="rgb(251,251,251)" stroke-width="1" opacity="1" d="M 200.5 5 L 201 159.5 L 200 159.5 L 200.5 5 Z "></path><path fill="rgb(251,251,251)" stroke="rgb(251,251,251)" stroke-width="1" opacity="1" d="M 18.5 17 L 21.5 19 L 22.5 18 L 34 29.5 L 34 31.5 L 34 34.5 L 21.5 47 L 33 34.5 L 33 31.5 L 20.5 19 Q 18.3 18.3 19 20.5 L 18 20.5 L 19 18.5 L 18.5 17 Z "></path><path fill="rgb(251,251,251)" stroke="rgb(251,251,251)" stroke-width="1" opacity="1" d="M 19.5 22 L 26.5 30 L 19.5 22 Z "></path><path fill="rgb(251,251,251)" stroke="rgb(251,251,251)" stroke-width="1" opacity="1" d="M 29.5 32 L 30 33.5 L 19 44.5 L 19 46.5 Q 21.3 47.8 18.5 49 L 18 46.5 L 18 44.5 L 29.5 32 Z "></path><path fill="rgb(251,251,251)" stroke="rgb(251,251,251)" stroke-width="1" opacity="1" d="M 42.5 44 L 66.5 44 L 67 46.5 L 66 46.5 L 65.5 45 L 42 45 L 43 47.5 Q 41.5 50.5 40 47.5 L 42.5 44 Z "></path><path fill="rgb(251,251,251)" stroke="rgb(251,251,251)" stroke-width="1" opacity="1" d="M 83.5 73 L 85.5 73 L 87 73.5 L 84 75.5 L 83.5 78 L 83 75.5 L 83.5 73 Z "></path><path fill="rgb(251,251,251)" stroke="rgb(251,251,251)" stroke-width="1" opacity="1" d="M 95.5 73 L 97 76.5 L 95 75.5 L 95.5 73 Z "></path><path fill="rgb(251,251,251)" stroke="rgb(251,251,251)" stroke-width="1" opacity="1" d="M 139.5 73 L 142 73.5 L 139.5 74 L 139.5 73 Z "></path><path fill="rgb(251,251,251)" stroke="rgb(251,251,251)" stroke-width="1" opacity="1" d="M 170.5 73 L 174 73.5 L 170.5 74 L 170.5 73 Z "></path><path fill="rgb(251,251,251)" stroke="rgb(251,251,251)" stroke-width="1" opacity="1" d="M 135.5 74 L 139 75.5 L 136.5 76 L 135.5 74 Z "></path><path fill="rgb(251,251,251)" stroke="rgb(251,251,251)" stroke-width="1" opacity="1" d="M 133.5 75 L 135 76.5 L 131.5 80 L 130.5 78 Q 132.3 80.7 134 76.5 L 133.5 75 Z "></path><path fill="rgb(251,251,251)" stroke="rgb(251,251,251)" stroke-width="1" opacity="1" d="M 143.5 75 L 146 75.5 L 143.5 76 L 143.5 75 Z "></path><path fill="rgb(251,251,251)" stroke="rgb(251,251,251)" stroke-width="1" opacity="1" d="M 91.5 76 L 94 76.5 L 91.5 77 L 91.5 76 Z "></path><path fill="rgb(251,251,251)" stroke="rgb(251,251,251)" stroke-width="1" opacity="1" d="M 147.5 76 L 151 77.5 L 150.5 80 L 147.5 76 Z "></path><path fill="rgb(251,251,251)" stroke="rgb(251,251,251)" stroke-width="1" opacity="1" d="M 164.5 76 L 166 76.5 L 163 78.5 L 162.5 80 L 162 78.5 L 164.5 76 Z "></path><path fill="rgb(251,251,251)" stroke="rgb(251,251,251)" stroke-width="1" opacity="1" d="M 178.5 76 L 182 78.5 L 181.5 80 L 179.5 77 L 178.5 76 Z "></path><path fill="rgb(251,251,251)" stroke="rgb(251,251,251)" stroke-width="1" opacity="1" d="M 139.5 77 L 143 77.5 L 139.5 78 L 139.5 77 Z "></path><path fill="rgb(251,251,251)" stroke="rgb(251,251,251)" stroke-width="1" opacity="1" d="M 169.5 77 L 170.5 79 L 169.5 77 Z "></path><path fill="rgb(251,251,251)" stroke="rgb(251,251,251)" stroke-width="1" opacity="1" d="M 174.5 77 L 173.5 79 L 174.5 77 Z "></path><path fill="rgb(251,251,251)" stroke="rgb(251,251,251)" stroke-width="1" opacity="1" d="M 81.5 78 L 82 81.5 L 81 81.5 L 81.5 78 Z "></path><path fill="rgb(251,251,251)" stroke="rgb(251,251,251)" stroke-width="1" opacity="1" d="M 137.5 78 L 138.5 80 L 137.5 79 L 135 80.5 L 137.5 78 Z "></path><path fill="rgb(251,251,251)" stroke="rgb(251,251,251)" stroke-width="1" opacity="1" d="M 144.5 78 L 147.5 82 Q 145.3 77.8 143 79.5 L 144.5 78 Z "></path><path fill="rgb(251,251,251)" stroke="rgb(251,251,251)" stroke-width="1" opacity="1" d="M 167.5 78 Q 170.5 79.5 167.5 81 L 167.5 78 Z "></path><path fill="rgb(251,251,251)" stroke="rgb(251,251,251)" stroke-width="1" opacity="1" d="M 175.5 79 L 176.5 81 L 175.5 79 Z "></path><path fill="rgb(251,251,251)" stroke="rgb(251,251,251)" stroke-width="1" opacity="1" d="M 129.5 80 L 131 83.5 L 130 83.5 L 129.5 80 Z "></path><path fill="rgb(251,251,251)" stroke="rgb(251,251,251)" stroke-width="1" opacity="1" d="M 152.5 80 L 152 81.5 L 151.5 83 L 151 81.5 L 152.5 80 Z "></path><path fill="rgb(251,251,251)" stroke="rgb(251,251,251)" stroke-width="1" opacity="1" d="M 183.5 80 L 184 83.5 L 183 83.5 L 183.5 80 Z "></path><path fill="rgb(251,251,251)" stroke="rgb(251,251,251)" stroke-width="1" opacity="1" d="M 165.5 81 L 166 84.5 L 165 84.5 L 165.5 81 Z "></path><path fill="rgb(251,251,251)" stroke="rgb(251,251,251)" stroke-width="1" opacity="1" d="M 178.5 81 L 179 84.5 L 178 84.5 L 178.5 81 Z "></path><path fill="rgb(251,251,251)" stroke="rgb(251,251,251)" stroke-width="1" opacity="1" d="M 107.5 82 L 113 82.5 L 107.5 83 L 107.5 82 Z "></path><path fill="rgb(251,251,251)" stroke="rgb(251,251,251)" stroke-width="1" opacity="1" d="M 134.5 82 L 135.5 84 L 134.5 82 Z "></path><path fill="rgb(251,251,251)" stroke="rgb(251,251,251)" stroke-width="1" opacity="1" d="M 80.5 84 L 80.5 87 Q 76.8 88 78 85 L 80.5 84 Z "></path><path fill="rgb(251,251,251)" stroke="rgb(251,251,251)" stroke-width="1" opacity="1" d="M 89.5 84 Q 95.8 82.1 94 87 L 89 86.5 L 93 85.5 Q 88.6 85.9 89.5 84 Z "></path><path fill="rgb(251,251,251)" stroke="rgb(251,251,251)" stroke-width="1" opacity="1" d="M 105.5 84 L 109 86.5 L 106.5 85 L 105.5 84 Z "></path><path fill="rgb(251,251,251)" stroke="rgb(251,251,251)" stroke-width="1" opacity="1" d="M 109.5 84 L 112 84.5 L 109.5 85 L 109.5 84 Z "></path><path fill="rgb(251,251,251)" stroke="rgb(251,251,251)" stroke-width="1" opacity="1" d="M 114.5 84 L 124 84.5 L 121.5 86 Q 120 83.5 114.5 85 L 116 87.5 L 114.5 89 L 113.5 86 L 112 86.5 L 114.5 84 Z "></path><path fill="rgb(251,251,251)" stroke="rgb(251,251,251)" stroke-width="1" opacity="1" d="M 128.5 84 L 129 87.5 L 128 87.5 L 128.5 84 Z "></path><path fill="rgb(251,251,251)" stroke="rgb(251,251,251)" stroke-width="1" opacity="1" d="M 181.5 84 L 183 86.5 L 180 86.5 L 181.5 84 Z "></path><path fill="rgb(251,251,251)" stroke="rgb(251,251,251)" stroke-width="1" opacity="1" d="M 152.5 85 L 153 95.5 L 152 95.5 L 152.5 85 Z "></path><path fill="rgb(251,251,251)" stroke="rgb(251,251,251)" stroke-width="1" opacity="1" d="M 105.5 87 L 105 88.5 L 106 92.5 L 105 92.5 L 104 88.5 L 105.5 87 Z "></path><path fill="rgb(251,251,251)" stroke="rgb(251,251,251)" stroke-width="1" opacity="1" d="M 163.5 87 L 164.5 89 L 163.5 87 Z "></path><path fill="rgb(251,251,251)" stroke="rgb(251,251,251)" stroke-width="1" opacity="1" d="M 81.5 88 L 82 109.5 L 81 109.5 L 81.5 88 Z "></path><path fill="rgb(251,251,251)" stroke="rgb(251,251,251)" stroke-width="1" opacity="1" d="M 135.5 88 L 134.5 90 L 135.5 88 Z "></path><path fill="rgb(251,251,251)" stroke="rgb(251,251,251)" stroke-width="1" opacity="1" d="M 169.5 88 L 170.5 90 L 169.5 88 Z "></path><path fill="rgb(251,251,251)" stroke="rgb(251,251,251)" stroke-width="1" opacity="1" d="M 174.5 88 L 173.5 90 L 174.5 88 Z "></path><path fill="rgb(251,251,251)" stroke="rgb(251,251,251)" stroke-width="1" opacity="1" d="M 178.5 88 L 179.5 90 L 178.5 88 Z "></path><path fill="rgb(251,251,251)" stroke="rgb(251,251,251)" stroke-width="1" opacity="1" d="M 146.5 89 Q 150 91 145.5 93 L 144.5 91 Q 145.8 93.3 147 90.5 L 146.5 89 Z "></path><path fill="rgb(251,251,251)" stroke="rgb(251,251,251)" stroke-width="1" opacity="1" d="M 100.5 90 L 101 93.5 L 100 93.5 L 100.5 90 Z "></path><path fill="rgb(251,251,251)" stroke="rgb(251,251,251)" stroke-width="1" opacity="1" d="M 136.5 90 Q 139.5 91.5 136.5 93 Q 133.5 91.5 136.5 90 Z "></path><path fill="rgb(251,251,251)" stroke="rgb(251,251,251)" stroke-width="1" opacity="1" d="M 131.5 92 L 133 94.5 L 131 93.5 L 131.5 92 Z "></path><path fill="rgb(251,251,251)" stroke="rgb(251,251,251)" stroke-width="1" opacity="1" d="M 139.5 92 L 138.5 94 L 139.5 92 Z "></path><path fill="rgb(251,251,251)" stroke="rgb(251,251,251)" stroke-width="1" opacity="1" d="M 142.5 92 Q 147 94 143.5 96 L 142 95.5 L 144 94.5 L 142.5 92 Z "></path><path fill="rgb(251,251,251)" stroke="rgb(251,251,251)" stroke-width="1" opacity="1" d="M 170.5 93 L 171.5 95 L 170.5 93 Z "></path><path fill="rgb(251,251,251)" stroke="rgb(251,251,251)" stroke-width="1" opacity="1" d="M 149.5 94 L 150 96.5 L 149 96.5 L 149.5 94 Z "></path><path fill="rgb(251,251,251)" stroke="rgb(251,251,251)" stroke-width="1" opacity="1" d="M 164.5 94 L 162 97.5 L 161.5 99 L 161 97.5 L 164.5 94 Z "></path><path fill="rgb(251,251,251)" stroke="rgb(251,251,251)" stroke-width="1" opacity="1" d="M 168.5 94 L 169.5 96 L 168.5 95 L 165 97.5 L 168.5 94 Z "></path><path fill="rgb(251,251,251)" stroke="rgb(251,251,251)" stroke-width="1" opacity="1" d="M 174.5 94 L 173.5 96 L 174.5 94 Z "></path><path fill="rgb(251,251,251)" stroke="rgb(251,251,251)" stroke-width="1" opacity="1" d="M 178.5 94 L 183 97.5 L 182.5 99 L 179.5 95 L 178.5 94 Z "></path><path fill="rgb(251,251,251)" stroke="rgb(251,251,251)" stroke-width="1" opacity="1" d="M 101.5 95 L 103 97.5 L 101 96.5 L 101.5 95 Z "></path><path fill="rgb(251,251,251)" stroke="rgb(251,251,251)" stroke-width="1" opacity="1" d="M 106.5 95 Q 104.8 97 108.5 99 L 112 98.5 L 109 97.5 L 111.5 97 L 116 100.5 L 114.5 100 L 107.5 100 L 107 98.5 Q 103.3 96.8 106.5 95 Z "></path><path fill="rgb(251,251,251)" stroke="rgb(251,251,251)" stroke-width="1" opacity="1" d="M 119.5 95 L 120 96.5 L 116.5 99 L 116.5 98 L 119 96.5 L 119.5 95 Z "></path><path fill="rgb(251,251,251)" stroke="rgb(251,251,251)" stroke-width="1" opacity="1" d="M 134.5 95 L 133.5 97 L 134.5 95 Z "></path><path fill="rgb(251,251,251)" stroke="rgb(251,251,251)" stroke-width="1" opacity="1" d="M 151.5 99 L 153 101.5 L 151 100.5 L 151.5 99 Z "></path><path fill="rgb(251,251,251)" stroke="rgb(251,251,251)" stroke-width="1" opacity="1" d="M 164.5 99 L 166 101.5 L 165 101.5 L 164.5 99 Z "></path><path fill="rgb(251,251,251)" stroke="rgb(251,251,251)" stroke-width="1" opacity="1" d="M 146.5 100 L 147.5 102 L 146.5 100 Z "></path><path fill="rgb(251,251,251)" stroke="rgb(251,251,251)" stroke-width="1" opacity="1" d="M 103.5 102 L 105 102.5 L 102.5 104 L 103.5 102 Z "></path><path fill="rgb(251,251,251)" stroke="rgb(251,251,251)" stroke-width="1" opacity="1" d="M 150.5 102 L 151.5 104 L 150.5 102 Z "></path><path fill="rgb(251,251,251)" stroke="rgb(251,251,251)" stroke-width="1" opacity="1" d="M 149.5 104 L 150 106.5 L 148.5 108 L 146 107.5 L 149.5 104 Z "></path><path fill="rgb(251,251,251)" stroke="rgb(251,251,251)" stroke-width="1" opacity="1" d="M 143.5 105 L 142.5 107 L 143.5 105 Z "></path><path fill="rgb(251,251,251)" stroke="rgb(251,251,251)" stroke-width="1" opacity="1" d="M 161.5 105 L 163 107.5 L 161 106.5 L 161.5 105 Z "></path><path fill="rgb(251,251,251)" stroke="rgb(251,251,251)" stroke-width="1" opacity="1" d="M 182.5 105 L 183.5 107 L 182.5 106 L 179 108.5 L 182.5 105 Z "></path><path fill="rgb(251,251,251)" stroke="rgb(251,251,251)" stroke-width="1" opacity="1" d="M 108.5 107 L 118 107.5 L 108.5 108 L 108.5 107 Z "></path><path fill="rgb(251,251,251)" stroke="rgb(251,251,251)" stroke-width="1" opacity="1" d="M 132 107 L 134 107.5 L 132.5 110 L 132 107 Z "></path><path fill="rgb(251,251,251)" stroke="rgb(251,251,251)" stroke-width="1" opacity="1" d="M 137.5 107 L 140 107.5 L 137.5 108 L 137.5 107 Z "></path><path fill="rgb(251,251,251)" stroke="rgb(251,251,251)" stroke-width="1" opacity="1" d="M 120.5 108 L 123 109.5 L 122.5 111 L 122 109 L 120.5 108 Z "></path><path fill="rgb(251,251,251)" stroke="rgb(251,251,251)" stroke-width="1" opacity="1" d="M 143.5 108 L 146 109.5 L 144.5 109 L 143.5 108 Z "></path><path fill="rgb(251,251,251)" stroke="rgb(251,251,251)" stroke-width="1" opacity="1" d="M 83.5 109 L 87 109.5 L 83.5 110 L 83.5 109 Z "></path><path fill="rgb(251,251,251)" stroke="rgb(251,251,251)" stroke-width="1" opacity="1" d="M 139.5 109 L 142 109.5 L 139.5 110 L 139.5 109 Z "></path><path fill="rgb(251,251,251)" stroke="rgb(251,251,251)" stroke-width="1" opacity="1" d="M 166.5 109 L 169 109.5 L 165.5 111 L 166.5 109 Z "></path><path fill="rgb(251,251,251)" stroke="rgb(251,251,251)" stroke-width="1" opacity="1" d="M 105.5 110 L 106.5 112 L 105.5 110 Z "></path><path fill="rgb(251,251,251)" stroke="rgb(251,251,251)" stroke-width="1" opacity="1" d="M 116.5 110 L 115.5 112 L 114 111.5 L 116.5 110 Z "></path><path fill="rgb(251,251,251)" stroke="rgb(251,251,251)" stroke-width="1" opacity="1" d="M 101.5 111 L 105 112.5 L 100.5 113 L 99 112.5 L 101.5 111 Z "></path><path fill="rgb(251,251,251)" stroke="rgb(251,251,251)" stroke-width="1" opacity="1" d="M 133.5 111 L 138 111.5 L 133.5 112 L 133.5 111 Z "></path><path fill="rgb(251,251,251)" stroke="rgb(251,251,251)" stroke-width="1" opacity="1" d="M 170.5 111 L 174 111.5 L 170.5 112 L 170.5 111 Z "></path><path fill="rgb(251,251,251)" stroke="rgb(251,251,251)" stroke-width="1" opacity="1" d="M 98.5 114 Q 98 119 101 120.5 L 97 119.5 L 98.5 114 Z "></path><path fill="rgb(251,251,251)" stroke="rgb(251,251,251)" stroke-width="1" opacity="1" d="M 101.5 114 L 102.5 116 L 101.5 114 Z "></path><path fill="rgb(251,251,251)" stroke="rgb(251,251,251)" stroke-width="1" opacity="1" d="M 101.5 117 L 103.5 120 L 101.5 117 Z "></path><path fill="rgb(251,251,251)" stroke="rgb(251,251,251)" stroke-width="1" opacity="1" d="M 122.5 117 L 123.5 119 Q 122.2 116.8 121 119.5 L 121.5 121 L 119.5 121 L 118 120.5 L 122.5 117 Z "></path><path fill="rgb(251,251,251)" stroke="rgb(251,251,251)" stroke-width="1" opacity="1" d="M 106.5 119 L 108 119.5 L 105.5 121 L 106.5 119 Z "></path><path fill="rgb(251,251,251)" stroke="rgb(251,251,251)" stroke-width="1" opacity="1" d="M 114.5 120 L 118 122.5 L 116.5 122 L 114.5 120 Z "></path><path fill="rgb(251,251,251)" stroke="rgb(251,251,251)" stroke-width="1" opacity="1" d="M 108.5 121 L 111 121.5 L 108.5 122 L 108.5 121 Z "></path><path fill="rgb(3,4,3)" stroke="rgb(3,4,3)" stroke-width="1" opacity="1" d="M 23.5 16 L 35.5 29 L 23.5 16 Z "></path><path fill="rgb(3,4,3)" stroke="rgb(3,4,3)" stroke-width="1" opacity="1" d="M 14.5 18 L 15 21.5 L 14 21.5 L 14.5 18 Z "></path><path fill="rgb(3,4,3)" stroke="rgb(3,4,3)" stroke-width="1" opacity="1" d="M 26.5 33 L 22.5 38 L 26.5 33 Z "></path><path fill="rgb(3,4,3)" stroke="rgb(3,4,3)" stroke-width="1" opacity="1" d="M 34.5 38 L 24.5 49 L 34.5 38 Z "></path><path fill="rgb(3,4,3)" stroke="rgb(3,4,3)" stroke-width="1" opacity="1" d="M 179.5 72 L 178.5 74 L 179.5 72 Z "></path><path fill="rgb(3,4,3)" stroke="rgb(3,4,3)" stroke-width="1" opacity="1" d="M 150.5 74 L 153.5 78 L 150.5 74 Z "></path><path fill="rgb(3,4,3)" stroke="rgb(3,4,3)" stroke-width="1" opacity="1" d="M 182.5 74 L 183.5 76 L 182.5 74 Z "></path><path fill="rgb(3,4,3)" stroke="rgb(3,4,3)" stroke-width="1" opacity="1" d="M 78.5 81 L 79.5 83 L 78.5 81 Z "></path><path fill="rgb(3,4,3)" stroke="rgb(3,4,3)" stroke-width="1" opacity="1" d="M 139.5 81 L 143.5 82 L 145 81.5 Q 143.8 84.3 142.5 82 L 138.5 83 L 139.5 81 Z "></path><path fill="rgb(3,4,3)" stroke="rgb(3,4,3)" stroke-width="1" opacity="1" d="M 169.5 81 L 170 83.5 L 169 83.5 L 169.5 81 Z "></path><path fill="rgb(3,4,3)" stroke="rgb(3,4,3)" stroke-width="1" opacity="1" d="M 174.5 81 L 175 83.5 L 174 83.5 L 174.5 81 Z "></path><path fill="rgb(3,4,3)" stroke="rgb(3,4,3)" stroke-width="1" opacity="1" d="M 159.5 84 L 158.5 86 L 159.5 84 Z "></path><path fill="rgb(3,4,3)" stroke="rgb(3,4,3)" stroke-width="1" opacity="1" d="M 74.5 85 L 75 87.5 L 74 87.5 L 74.5 85 Z "></path><path fill="rgb(3,4,3)" stroke="rgb(3,4,3)" stroke-width="1" opacity="1" d="M 144.5 88 L 143.5 90 L 144.5 88 Z "></path><path fill="rgb(3,4,3)" stroke="rgb(3,4,3)" stroke-width="1" opacity="1" d="M 96.5 89 L 97 93.5 L 96 93.5 L 96.5 89 Z "></path><path fill="rgb(3,4,3)" stroke="rgb(3,4,3)" stroke-width="1" opacity="1" d="M 91.5 90 L 95 90.5 L 91.5 91 L 91.5 90 Z "></path><path fill="rgb(3,4,3)" stroke="rgb(3,4,3)" stroke-width="1" opacity="1" d="M 163.5 90 L 159.5 95 L 163.5 90 Z "></path><path fill="rgb(3,4,3)" stroke="rgb(3,4,3)" stroke-width="1" opacity="1" d="M 89.5 91 L 90 110.5 L 89 110.5 L 89.5 91 Z "></path><path fill="rgb(3,4,3)" stroke="rgb(3,4,3)" stroke-width="1" opacity="1" d="M 112.5 92 L 113 94.5 L 112 94.5 L 112.5 92 Z "></path><path fill="rgb(3,4,3)" stroke="rgb(3,4,3)" stroke-width="1" opacity="1" d="M 156.5 94 L 158 97.5 L 156 96.5 L 156.5 94 Z "></path><path fill="rgb(3,4,3)" stroke="rgb(3,4,3)" stroke-width="1" opacity="1" d="M 98.5 95 L 97.5 97 L 98.5 95 Z "></path><path fill="rgb(3,4,3)" stroke="rgb(3,4,3)" stroke-width="1" opacity="1" d="M 170.5 97 L 168.5 100 L 170.5 97 Z "></path><path fill="rgb(3,4,3)" stroke="rgb(3,4,3)" stroke-width="1" opacity="1" d="M 135.5 98 L 134.5 100 L 135.5 98 Z "></path><path fill="rgb(3,4,3)" stroke="rgb(3,4,3)" stroke-width="1" opacity="1" d="M 144.5 98 L 145 100 L 143 99.5 L 144.5 98 Z "></path><path fill="rgb(3,4,3)" stroke="rgb(3,4,3)" stroke-width="1" opacity="1" d="M 174.5 98 L 176 100.5 L 175 100.5 L 174.5 98 Z "></path><path fill="rgb(3,4,3)" stroke="rgb(3,4,3)" stroke-width="1" opacity="1" d="M 155.5 100 Q 158.1 99.2 157 102.5 L 156 102.5 L 155.5 100 Z "></path><path fill="rgb(3,4,3)" stroke="rgb(3,4,3)" stroke-width="1" opacity="1" d="M 109.5 102 L 114 103.5 L 111.5 104 L 109.5 103 L 108 103.5 L 109.5 102 Z "></path><path fill="rgb(3,4,3)" stroke="rgb(3,4,3)" stroke-width="1" opacity="1" d="M 117.5 102 L 118 104 L 115 103.5 L 117.5 102 Z "></path><path fill="rgb(3,4,3)" stroke="rgb(3,4,3)" stroke-width="1" opacity="1" d="M 168.5 102 L 169.5 104 Q 166.7 104.7 168.5 102 Z "></path><path fill="rgb(3,4,3)" stroke="rgb(3,4,3)" stroke-width="1" opacity="1" d="M 175.5 102 L 176 104 L 174 103.5 L 175.5 102 Z "></path><path fill="rgb(3,4,3)" stroke="rgb(3,4,3)" stroke-width="1" opacity="1" d="M 132.5 103 L 139 103.5 L 132.5 104 L 132.5 103 Z "></path><path fill="rgb(3,4,3)" stroke="rgb(3,4,3)" stroke-width="1" opacity="1" d="M 128.5 106 L 129 110.5 L 128 110.5 L 128.5 106 Z "></path><path fill="rgb(3,4,3)" stroke="rgb(3,4,3)" stroke-width="1" opacity="1" d="M 151.5 107 L 149.5 110 L 151.5 107 Z "></path><path fill="rgb(3,4,3)" stroke="rgb(3,4,3)" stroke-width="1" opacity="1" d="M 107.5 112 L 114 112.5 L 107.5 113 L 107.5 112 Z "></path><path fill="rgb(3,4,3)" stroke="rgb(3,4,3)" stroke-width="1" opacity="1" d="M 81.5 113 L 89 113.5 L 81.5 114 L 81.5 113 Z "></path><path fill="rgb(3,4,3)" stroke="rgb(3,4,3)" stroke-width="1" opacity="1" d="M 113.5 116 L 116 117.5 L 114.5 117 L 113.5 116 Z "></path><path fill="rgb(3,4,3)" stroke="rgb(3,4,3)" stroke-width="1" opacity="1" d="M 125.5 116 L 126.5 118 L 125.5 116 Z "></path><path fill="rgb(3,4,3)" stroke="rgb(3,4,3)" stroke-width="1" opacity="1" d="M 108.5 118 L 111 118.5 L 108.5 119 L 108.5 118 Z "></path><path fill="rgb(3,4,3)" stroke="rgb(3,4,3)" stroke-width="1" opacity="1" d="M 125.5 119 L 122.5 123 L 125.5 119 Z "></path><path fill="rgb(3,4,3)" stroke="rgb(3,4,3)" stroke-width="1" opacity="1" d="M 107.5 126 L 111 126.5 L 107.5 127 L 107.5 126 Z "></path><path fill="rgb(3,4,3)" stroke="rgb(3,4,3)" stroke-width="1" opacity="1" d="M 2.5 160 L 3.5 161 L 196.5 161 L 198 160.5 L 196.5 162 L 3.5 162 L 2.5 160 Z "></path><path fill="rgb(20,178,20)" stroke="rgb(20,178,20)" stroke-width="1" opacity="1" d="M 59 71 L 62 71 Q 59.9 76.2 64.5 75 L 72 77 L 71 83 L 62 81 L 62 88.5 L 63.5 90 Q 70 91.5 73 96.5 Q 74.3 104.8 69.5 107 L 62 109 L 62 114 L 59 114 Q 61.8 106.5 53.5 109 L 48 106.5 Q 46.8 100.4 49.5 101 Q 52.8 104 59 103 L 59 95.5 L 57.5 94 Q 51.7 93.3 49 89.5 L 48 81.5 L 51.5 77 L 59 75 L 59 71 Z M 58 81 Q 55 81 55 86 L 58 87 L 59 88 Q 60 80 58 81 Z M 62 97 L 62 103 L 65 102 Q 67 103 66 100 L 62 97 Z "></path><path fill="rgb(59,59,59)" stroke="rgb(59,59,59)" stroke-width="1" opacity="1" d="M 199.5 4 L 200 160.5 L 199 160.5 L 199.5 4 Z "></path><path fill="rgb(59,59,59)" stroke="rgb(59,59,59)" stroke-width="1" opacity="1" d="M 16.5 47 L 17.5 49 L 16.5 47 Z "></path><path fill="rgb(59,59,59)" stroke="rgb(59,59,59)" stroke-width="1" opacity="1" d="M 42.5 49 L 66 49.5 L 42.5 50 L 42.5 49 Z "></path><path fill="rgb(59,59,59)" stroke="rgb(59,59,59)" stroke-width="1" opacity="1" d="M 89.5 70 L 94 70.5 L 89.5 71 L 89.5 70 Z "></path><path fill="rgb(59,59,59)" stroke="rgb(59,59,59)" stroke-width="1" opacity="1" d="M 150.5 76 L 151.5 78 L 150.5 76 Z "></path><path fill="rgb(59,59,59)" stroke="rgb(59,59,59)" stroke-width="1" opacity="1" d="M 146.5 85 L 147 87.5 L 146 87.5 L 146.5 85 Z "></path><path fill="rgb(59,59,59)" stroke="rgb(59,59,59)" stroke-width="1" opacity="1" d="M 122.5 90 L 123 93.5 L 122 93.5 L 122.5 90 Z "></path><path fill="rgb(59,59,59)" stroke="rgb(59,59,59)" stroke-width="1" opacity="1" d="M 162.5 93 L 160.5 96 L 162.5 93 Z "></path><path fill="rgb(59,59,59)" stroke="rgb(59,59,59)" stroke-width="1" opacity="1" d="M 137.5 98 L 141 98.5 L 137.5 99 L 137.5 98 Z "></path><path fill="rgb(59,59,59)" stroke="rgb(59,59,59)" stroke-width="1" opacity="1" d="M 177.5 100 L 178 102.5 L 177 102.5 L 177.5 100 Z "></path><path fill="rgb(59,59,59)" stroke="rgb(59,59,59)" stroke-width="1" opacity="1" d="M 185.5 100 L 186 103.5 L 185 103.5 L 185.5 100 Z "></path><path fill="rgb(59,59,59)" stroke="rgb(59,59,59)" stroke-width="1" opacity="1" d="M 134.5 105 L 137 105.5 L 134.5 106 L 134.5 105 Z "></path><path fill="rgb(59,59,59)" stroke="rgb(59,59,59)" stroke-width="1" opacity="1" d="M 125.5 112 L 126 114.5 L 125 114.5 L 125.5 112 Z "></path><path fill="rgb(59,59,59)" stroke="rgb(59,59,59)" stroke-width="1" opacity="1" d="M 123.5 119 L 121.5 122 L 123.5 119 Z "></path><path fill="rgb(59,59,59)" stroke="rgb(59,59,59)" stroke-width="1" opacity="1" d="M 106.5 124 L 112 124.5 L 106.5 125 L 106.5 124 Z "></path><path fill="rgb(37,37,37)" stroke="rgb(37,37,37)" stroke-width="1" opacity="1" d="M 0.5 4 L 1 159.5 L 0 159.5 L 0.5 4 Z "></path><path fill="rgb(37,37,37)" stroke="rgb(37,37,37)" stroke-width="1" opacity="1" d="M 22.5 17 L 34.5 30 L 22.5 17 Z "></path><path fill="rgb(37,37,37)" stroke="rgb(37,37,37)" stroke-width="1" opacity="1" d="M 83.5 72 L 82.5 74 L 83.5 72 Z "></path><path fill="rgb(37,37,37)" stroke="rgb(37,37,37)" stroke-width="1" opacity="1" d="M 181.5 75 L 182.5 77 L 181.5 75 Z "></path><path fill="rgb(37,37,37)" stroke="rgb(37,37,37)" stroke-width="1" opacity="1" d="M 108.5 81 L 112 81.5 L 108.5 82 L 108.5 81 Z "></path><path fill="rgb(37,37,37)" stroke="rgb(37,37,37)" stroke-width="1" opacity="1" d="M 184.5 81 L 185 83.5 L 184 83.5 L 184.5 81 Z "></path><path fill="rgb(37,37,37)" stroke="rgb(37,37,37)" stroke-width="1" opacity="1" d="M 145.5 89 L 144.5 91 L 145.5 89 Z "></path><path fill="rgb(37,37,37)" stroke="rgb(37,37,37)" stroke-width="1" opacity="1" d="M 80.5 90 L 81 110.5 L 80 110.5 L 80.5 90 Z "></path></svg>